<?xml version="1.0" encoding="iso-8859-1"?>
<!-- Uploaded to: SVG Repo, www.svgrepo.com, Generator: SVG Repo Mixer Tools -->
<svg height="800px" width="800px" version="1.1" id="Layer_1" xmlns="http://www.w3.org/2000/svg" xmlns:xlink="http://www.w3.org/1999/xlink" 
	 viewBox="0 0 511.812 511.812" xml:space="preserve">
<g>
	<path style="fill:#E0E0E0;" d="M423.306,159.812c4.4,0,8.8,3.6,8.8,8v4c0,4.4-4.4,8-8.8,8h-16.4h-319.6c-4.4,0-7.6-3.6-7.6-8v-4
		c0-4.4,3.2-8,7.6-8h0.4h12h32H423.306z"/>
	<path style="fill:#E0E0E0;" d="M383.306,115.812c22,0,40.8,18,40.8,40v4h-0.8h-291.2h-32h-12v-4c0-22,17.6-40,39.6-40h120.4h16
		H383.306z"/>
</g>
<path style="fill:#E53935;" d="M125.306,475.812l-23.6-293.6l305.6-0.8l-23.6,294.4c-1.2,17.6-16.4,32-34,32h-190.4
	C141.706,507.812,126.106,493.412,125.306,475.812z M124.106,435.812h99.2c8.8,0,16.8-7.2,16.8-16v-164c0-8.8-8-16-16.8-16h-67.2
	L124.106,435.812z"/>
<path style="fill:#BDBDBD;" d="M385.306,3.812c4.4-0.8,8.8,2,9.6,6.4s-1.6,8.4-6,9.6l-124.8,26v70h-16v-76.4l0,0h-0.4
	c0-0.4-0.4-0.8,0-1.6c0,0,0-0.4,0-0.8s0-0.4,0.4-0.8c0-0.4,0.4-0.4,0.4-0.8s0.4-0.4,0.4-0.8s0.4-0.4,0.4-0.4c0.4,0,0.4-0.4,0.4-0.8
	l0.4-0.4c0.4-0.4,0.4-0.4,0.8-0.4c0.4,0,0.4-0.4,0.4-0.4c0.4,0,0.4-0.4,0.8-0.4c0.4,0,0.8-0.4,1.2-0.4s0.4,0,0.4,0L385.306,3.812z"
	/>
<path style="fill:#FFFFFF;" d="M223.306,239.812c8.8,0,16.8,7.2,16.8,16v164c0,8.8-8,16-16.8,16h-99.2l32-196H223.306z"/>
<path d="M349.306,511.812h-190.4c-19.6,0-36.8-16-38-35.6l-23.6-291.2c0-2.4,1.6-4,3.6-4.4c2.4-0.4,4,1.6,4.4,3.6l23.6,291.2
	c0.8,15.6,14.4,28.4,30,28.4h190.4c15.6,0,29.2-12.8,30-28l23.6-294c0-2,2-4,4.4-3.6c2.4,0,4,2,3.6,4.4l-23.6,294
	C386.106,495.812,369.306,511.812,349.306,511.812z"/>
<path d="M424.106,163.812c-2.4,0-4-1.6-4-4v-4c0-19.6-16.8-36-36.8-36h-119.2c-2.4,0-4-1.6-4-4s1.6-4,4-4h119.2
	c24.4,0,44.8,20,44.8,44v4C428.106,162.212,426.506,163.812,424.106,163.812z"/>
<path d="M88.106,163.812c-2.4,0-4-1.6-4-4v-4c0-24.4,19.6-44,43.6-44h120.4c2.4,0,4,1.6,4,4s-1.6,4-4,4h-120.4
	c-19.6,0-35.6,16-35.6,36v4C92.106,162.212,90.506,163.812,88.106,163.812z"/>
<path d="M423.306,183.812h-336c-6.4,0-11.6-5.2-11.6-12v-4c0-6.8,4.8-12,11.6-12h12.4c2.4,0,4,1.6,4,4s-1.6,4-4,4h-12.4
	c-2.4,0-3.6,2-3.6,4v4c0,2,1.2,4,3.6,4h336c2.4,0,4.8-2,4.8-4v-4c0-2-2.4-4-4.8-4h-291.2c-2.4,0-4-1.6-4-4s1.6-4,4-4h291.2
	c6.8,0,12.8,5.6,12.8,12v4C436.106,178.212,430.106,183.812,423.306,183.812z"/>
<path d="M264.106,119.812c-2.4,0-4-1.6-4-4v-70c0-2,1.2-3.6,3.2-4l124.8-26c1.2-0.4,2-0.8,2.4-1.6c0.4-0.8,0.8-2,0.4-3.2
	c-0.4-2-2.8-3.6-4.8-3.2l-131.2,27.6c0,0-0.4,0-0.8,0l-0.4,0.4h-0.4l0,0l-0.4,0.4l0,0l0,0l0,0c0,0,0,0-0.4,0.4c0,0,0,0.4-0.4,0.4
	l0,0l-0.4,0.4l0,0c0,0.4,0.4,0.8,0.4,1.2v77.2c0,2.4-1.6,4-4,4s-4-1.6-4-4v-75.2c0-0.4-0.4-0.8-0.4-1.2c0-0.4-0.4-1.2,0-2
	c0-0.4,0.4-1.2,0.4-1.6c0,0,0-0.4,0.4-0.8l0.4-0.8c0.4-0.4,0.4-0.8,0.8-1.2l0.4-0.4c0-0.4,0.4-0.8,0.8-0.8l0.4-0.4
	c0.4-0.4,0.8-0.8,0.8-0.8c0.4-0.4,0.4-0.4,0.8-0.8l0.4-0.4c0,0,0.4-0.4,0.8-0.4c0.4-0.4,0.8-0.4,1.2-0.4c0.8-0.4,1.2-0.4,1.6-0.4
	l0.8-0.4l131.2-27.6c6.4-1.2,12.8,2.8,14.4,9.2c0.8,3.2,0,6.4-1.6,9.2c-1.6,2.8-4.4,4.4-7.6,5.2l-121.6,25.6v66.4
	C268.106,118.212,266.506,119.812,264.106,119.812z"/>
<path d="M223.306,439.812h-99.2c-2.4,0-4-1.6-4-4s1.6-4,4-4h99.2c6.8,0,12.8-5.6,12.8-12v-164c0-6.4-6-12-12.8-12h-67.2
	c-2.4,0-4-1.6-4-4s1.6-4,4-4h67.2c11.2,0,20.8,9.2,20.8,20v164C244.106,430.612,234.506,439.812,223.306,439.812z"/>
<path d="M124.106,243.812h-16c-2.4,0-4-1.6-4-4s1.6-4,4-4h16c2.4,0,4,1.6,4,4S126.506,243.812,124.106,243.812z"/>
</svg>